<?xml version="1.0" encoding="utf-8"?>
<!-- Generator: Adobe Illustrator 27.5.0, SVG Export Plug-In . SVG Version: 6.00 Build 0)  -->
<svg version="1.1" id="Capa_1" xmlns="http://www.w3.org/2000/svg" xmlns:xlink="http://www.w3.org/1999/xlink" x="0px" y="0px"
	 viewBox="0 0 2258 1994" style="enable-background:new 0 0 2258 1994;" xml:space="preserve">
<g>
	<path style="fill:#4893CF;" d="M2122.258,1006.34h-240.32l0.734-0.73c176.641-176.645,176.641-463.039,0-639.684
		c-176.641-176.641-463.043-176.641-639.684,0l-114.066,114.07l-114.07-114.07c-176.645-176.641-463.039-176.641-639.684,0l0,0
		c-176.645,176.645-176.645,463.039,0,639.684l0.73,0.73h-240.32c-17.762,0-17.789,27.609,0,27.609h267.926l85.734,85.727
		l-0.258,0.262l640.195,639.68l639.684-639.68l-0.254-0.262l85.727-85.727h267.926
		C2140.023,1033.949,2140.047,1006.34,2122.258,1006.34z"/>
	<path style="fill:#9DCBEF;" d="M2122.258,1006.34h-445.914c-28.676-103.492-57.348-206.988-86.023-310.48
		c-4.125-14.898-8.258-29.797-12.383-44.699c-3.777-13.629-22.379-12.582-26.613,0c-37.855,112.371-75.707,224.738-113.555,337.105
		c-1.738,5.164-3.48,10.328-5.219,15.488c-18.828-37.43-37.656-74.859-56.484-112.289c-5.742-11.414-21.547-7.066-25.227,3.297
		c-20.434,57.566-40.875,115.137-61.305,172.707c-11.949-32.758-23.891-65.508-35.84-98.262
		c-26.223-71.902-52.445-143.809-78.668-215.711c-6.047-16.566-12.086-33.137-18.129-49.703c-4.191-11.488-24.02-14.664-26.621,0
		l-41.246,232.906c-21.883,123.547-43.758,247.094-65.641,370.641c-1.059,5.973-2.117,11.945-3.176,17.926
		c-10.605-47.367-21.215-94.727-31.82-142.09c-24.781-110.656-49.566-221.313-74.348-331.969l-16.977-75.813
		c-2.484-11.086-20.133-14.012-25.227-3.293c-20.543,43.234-41.086,86.469-61.625,129.707
		c-30.832-88.488-61.668-176.977-92.496-265.465c-4.91-14.086-9.816-28.168-14.723-42.254c-4.238-12.16-23.219-14.043-26.617,0
		c-11.516,47.566-23.027,95.129-34.535,142.691c-18.355,75.817-36.707,151.637-55.059,227.457
		c-3.398,14.031-6.793,28.07-10.191,42.102h-441.02c-17.762,0-17.789,27.609,0,27.609h451.879c5.898,0,11.887-4.273,13.305-10.133
		c11.512-47.566,23.027-95.129,34.539-142.691c18.352-75.82,36.703-151.637,55.055-227.457c0.578-2.383,1.156-4.774,1.734-7.16
		c29.371,84.309,58.75,168.613,88.125,252.922c4.906,14.082,9.813,28.168,14.723,42.254c3.547,10.176,19.742,14.84,25.227,3.297
		c19.625-41.305,39.246-82.613,58.871-123.918c12.703,56.711,25.402,113.418,38.102,170.129
		c24.781,110.656,49.563,221.313,74.348,331.969l16.98,75.813c2.871,12.82,24.223,13.504,26.617,0l41.246-232.91
		c21.879-123.547,43.762-247.094,65.641-370.641c2.078-11.719,4.152-23.441,6.227-35.164c10.469,28.707,20.941,57.414,31.41,86.117
		c26.223,71.902,52.445,143.809,78.668,215.711c6.047,16.566,12.086,33.137,18.129,49.703c4.73,12.977,21.941,13.172,26.621,0
		c21.105-59.453,42.207-118.906,63.309-178.359c18.949,37.66,37.887,75.316,56.828,112.969c5.68,11.289,21.691,7.203,25.23-3.293
		c37.848-112.371,75.699-224.738,113.547-337.105c0.469-1.379,0.93-2.758,1.395-4.141c25.609,92.418,51.215,184.84,76.816,277.258
		c4.125,14.898,8.258,29.801,12.387,44.699c1.617,5.844,7.238,10.133,13.309,10.133h456.414
		C2140.023,1033.949,2140.047,1006.34,2122.258,1006.34z"/>
</g>
</svg>
